# xmcd
#
# Track frame offsets: 
#        150
#        22002
#        46686
#        84409
#        127018
#        170699
#
# Disc length: 3528 seconds
#
# Revision: 0
# Processed by: cddbd v1.5.2PL0 Copyright (c) Steve Scherf et al.
# Submitted via: ExactAudioCopy v0.95a5
#
DISCID=460dc606
DTITLE=姚炳炎 - 姚炳炎古琴艺术-CD1
DYEAR=2017
DGENRE=Folk
TTITLE0=鸥鹭忘机
TTITLE1=平沙落雁
TTITLE2=高山
TTITLE3=潇湘水云
TTITLE4=碣石调.幽兰
TTITLE5=广陵散
EXTD=
EXTT0=
EXTT1=
EXTT2=
EXTT3=
EXTT4=
EXTT5=
PLAYORDER=
